<mxfile host="app.diagrams.net" modified="2024-04-27T11:37:05.325Z" agent="Mozilla/5.0 (Windows NT 10.0; Win64; x64) AppleWebKit/537.36 (KHTML, like Gecko) Chrome/124.0.0.0 Safari/537.36" etag="9WwzM9okBVF9NhH10ffp" version="24.2.2" type="device">
  <diagram name="Page-1" id="wheWkL0AoxxiBxUbhJFq">
    <mxGraphModel dx="1050" dy="557" grid="1" gridSize="10" guides="1" tooltips="1" connect="1" arrows="1" fold="1" page="1" pageScale="1" pageWidth="827" pageHeight="1169" math="0" shadow="0">
      <root>
        <mxCell id="0" />
        <mxCell id="1" parent="0" />
        <mxCell id="SLbRJCfgujYiKdR8xFGR-87" value="" style="group" vertex="1" connectable="0" parent="1">
          <mxGeometry x="20" y="40" width="790" height="1430" as="geometry" />
        </mxCell>
        <mxCell id="SLbRJCfgujYiKdR8xFGR-1" value="&lt;p style=&quot;margin: 4px 0px 0px; text-align: center; font-size: 13px;&quot;&gt;&lt;/p&gt;&lt;p style=&quot;font-size: 13px;&quot;&gt;&lt;/p&gt;" style="shape=rect;html=1;overflow=fill;whiteSpace=wrap;align=center;verticalAlign=top;fontStyle=1;fontSize=13;" vertex="1" parent="SLbRJCfgujYiKdR8xFGR-87">
          <mxGeometry y="30" width="290" height="1400" as="geometry" />
        </mxCell>
        <mxCell id="SLbRJCfgujYiKdR8xFGR-7" value="" style="group;fontStyle=1;fontSize=13;" vertex="1" connectable="0" parent="SLbRJCfgujYiKdR8xFGR-87">
          <mxGeometry x="560" y="30" width="230" height="1400" as="geometry" />
        </mxCell>
        <mxCell id="SLbRJCfgujYiKdR8xFGR-5" value="&lt;p style=&quot;margin: 4px 0px 0px; text-align: center; font-size: 13px;&quot;&gt;&lt;/p&gt;&lt;p style=&quot;font-size: 13px;&quot;&gt;&lt;/p&gt;" style="shape=rect;html=1;overflow=fill;whiteSpace=wrap;align=center;verticalAlign=top;fontStyle=1;fontSize=13;" vertex="1" parent="SLbRJCfgujYiKdR8xFGR-7">
          <mxGeometry width="230" height="1400.0000000000005" as="geometry" />
        </mxCell>
        <mxCell id="SLbRJCfgujYiKdR8xFGR-26" value="DATABASE" style="text;html=1;align=center;verticalAlign=middle;whiteSpace=wrap;rounded=0;fontStyle=1;fontSize=13;" vertex="1" parent="SLbRJCfgujYiKdR8xFGR-7">
          <mxGeometry x="90" y="13.207547169811324" width="60" height="39.622641509433976" as="geometry" />
        </mxCell>
        <mxCell id="SLbRJCfgujYiKdR8xFGR-55" value="Update user information in a secured database" style="rounded=1;whiteSpace=wrap;html=1;fontStyle=1;fontSize=13;" vertex="1" parent="SLbRJCfgujYiKdR8xFGR-7">
          <mxGeometry x="20" y="630" width="160" height="57.92" as="geometry" />
        </mxCell>
        <mxCell id="SLbRJCfgujYiKdR8xFGR-86" value="" style="edgeStyle=orthogonalEdgeStyle;rounded=0;orthogonalLoop=1;jettySize=auto;html=1;entryX=0.5;entryY=0;entryDx=0;entryDy=0;fontSize=13;" edge="1" parent="SLbRJCfgujYiKdR8xFGR-7">
          <mxGeometry relative="1" as="geometry">
            <mxPoint x="99.5" y="585" as="sourcePoint" />
            <mxPoint x="99.5" y="630" as="targetPoint" />
            <Array as="points" />
          </mxGeometry>
        </mxCell>
        <mxCell id="SLbRJCfgujYiKdR8xFGR-3" value="&lt;p style=&quot;margin: 4px 0px 0px; text-align: center; font-size: 13px;&quot;&gt;&lt;/p&gt;&lt;p style=&quot;font-size: 13px;&quot;&gt;&lt;/p&gt;" style="shape=rect;html=1;overflow=fill;whiteSpace=wrap;align=center;verticalAlign=top;fontStyle=1;fontSize=13;" vertex="1" parent="SLbRJCfgujYiKdR8xFGR-87">
          <mxGeometry x="290" y="30" width="270" height="1400" as="geometry" />
        </mxCell>
        <mxCell id="SLbRJCfgujYiKdR8xFGR-22" value="Online land sales system" style="rounded=0;whiteSpace=wrap;html=1;fontStyle=1;align=center;fontSize=13;" vertex="1" parent="SLbRJCfgujYiKdR8xFGR-87">
          <mxGeometry width="790" height="30" as="geometry" />
        </mxCell>
        <mxCell id="SLbRJCfgujYiKdR8xFGR-23" value="" style="endArrow=none;html=1;rounded=0;exitX=0.007;exitY=0.038;exitDx=0;exitDy=0;exitPerimeter=0;fontSize=13;" edge="1" parent="SLbRJCfgujYiKdR8xFGR-87" source="SLbRJCfgujYiKdR8xFGR-1">
          <mxGeometry width="50" height="50" relative="1" as="geometry">
            <mxPoint x="50" y="120" as="sourcePoint" />
            <mxPoint x="790" y="70" as="targetPoint" />
          </mxGeometry>
        </mxCell>
        <mxCell id="SLbRJCfgujYiKdR8xFGR-24" value="USER" style="text;html=1;align=center;verticalAlign=middle;whiteSpace=wrap;rounded=0;fontStyle=1;fontSize=13;" vertex="1" parent="SLbRJCfgujYiKdR8xFGR-87">
          <mxGeometry x="100" y="40" width="60" height="30" as="geometry" />
        </mxCell>
        <mxCell id="SLbRJCfgujYiKdR8xFGR-25" value="SYSTEM" style="text;html=1;align=center;verticalAlign=middle;whiteSpace=wrap;rounded=0;fontStyle=1;fontSize=13;" vertex="1" parent="SLbRJCfgujYiKdR8xFGR-87">
          <mxGeometry x="380" y="40" width="60" height="30" as="geometry" />
        </mxCell>
        <mxCell id="SLbRJCfgujYiKdR8xFGR-27" value="" style="ellipse;html=1;shape=startState;fontSize=13;fillColor=#000000;" vertex="1" parent="SLbRJCfgujYiKdR8xFGR-87">
          <mxGeometry x="115" y="100" width="30" height="30" as="geometry" />
        </mxCell>
        <mxCell id="SLbRJCfgujYiKdR8xFGR-29" value="" style="endArrow=classic;html=1;rounded=0;exitX=1;exitY=0.5;exitDx=0;exitDy=0;entryX=0;entryY=0.25;entryDx=0;entryDy=0;fontSize=13;" edge="1" parent="SLbRJCfgujYiKdR8xFGR-87" source="SLbRJCfgujYiKdR8xFGR-27" target="SLbRJCfgujYiKdR8xFGR-30">
          <mxGeometry width="50" height="50" relative="1" as="geometry">
            <mxPoint x="170" y="170" as="sourcePoint" />
            <mxPoint x="220" y="120" as="targetPoint" />
          </mxGeometry>
        </mxCell>
        <mxCell id="SLbRJCfgujYiKdR8xFGR-30" value="Display Homepage" style="rounded=1;whiteSpace=wrap;html=1;fontStyle=1;fontSize=13;" vertex="1" parent="SLbRJCfgujYiKdR8xFGR-87">
          <mxGeometry x="350" y="100" width="120" height="60" as="geometry" />
        </mxCell>
        <mxCell id="SLbRJCfgujYiKdR8xFGR-31" value="" style="endArrow=classic;html=1;rounded=0;exitX=0.5;exitY=1;exitDx=0;exitDy=0;entryX=1;entryY=0.5;entryDx=0;entryDy=0;fontSize=13;" edge="1" parent="SLbRJCfgujYiKdR8xFGR-87" source="SLbRJCfgujYiKdR8xFGR-30" target="SLbRJCfgujYiKdR8xFGR-32">
          <mxGeometry width="50" height="50" relative="1" as="geometry">
            <mxPoint x="155" y="125" as="sourcePoint" />
            <mxPoint x="360" y="125" as="targetPoint" />
            <Array as="points">
              <mxPoint x="410" y="200" />
            </Array>
          </mxGeometry>
        </mxCell>
        <mxCell id="SLbRJCfgujYiKdR8xFGR-34" value="" style="edgeStyle=orthogonalEdgeStyle;rounded=0;orthogonalLoop=1;jettySize=auto;html=1;fontSize=13;" edge="1" parent="SLbRJCfgujYiKdR8xFGR-87" source="SLbRJCfgujYiKdR8xFGR-32" target="SLbRJCfgujYiKdR8xFGR-33">
          <mxGeometry relative="1" as="geometry" />
        </mxCell>
        <mxCell id="SLbRJCfgujYiKdR8xFGR-32" value="Select lands&amp;nbsp;&lt;div style=&quot;font-size: 13px;&quot;&gt;filter preference&lt;/div&gt;" style="rounded=1;whiteSpace=wrap;html=1;fontStyle=1;fontSize=13;" vertex="1" parent="SLbRJCfgujYiKdR8xFGR-87">
          <mxGeometry x="70" y="170" width="120" height="60" as="geometry" />
        </mxCell>
        <mxCell id="SLbRJCfgujYiKdR8xFGR-36" value="" style="edgeStyle=orthogonalEdgeStyle;rounded=0;orthogonalLoop=1;jettySize=auto;html=1;fontSize=13;" edge="1" parent="SLbRJCfgujYiKdR8xFGR-87" source="SLbRJCfgujYiKdR8xFGR-33">
          <mxGeometry relative="1" as="geometry">
            <mxPoint x="130" y="370" as="targetPoint" />
          </mxGeometry>
        </mxCell>
        <mxCell id="SLbRJCfgujYiKdR8xFGR-33" value="Press signup&amp;nbsp;&lt;div style=&quot;font-size: 13px;&quot;&gt;button&lt;/div&gt;" style="rounded=1;whiteSpace=wrap;html=1;fontStyle=1;fontSize=13;" vertex="1" parent="SLbRJCfgujYiKdR8xFGR-87">
          <mxGeometry x="70" y="270" width="120" height="60" as="geometry" />
        </mxCell>
        <mxCell id="SLbRJCfgujYiKdR8xFGR-41" value="" style="edgeStyle=orthogonalEdgeStyle;rounded=0;orthogonalLoop=1;jettySize=auto;html=1;fontSize=13;" edge="1" parent="SLbRJCfgujYiKdR8xFGR-87" target="SLbRJCfgujYiKdR8xFGR-37">
          <mxGeometry relative="1" as="geometry">
            <mxPoint x="190" y="400" as="sourcePoint" />
          </mxGeometry>
        </mxCell>
        <mxCell id="SLbRJCfgujYiKdR8xFGR-37" value="Validate entered&amp;nbsp;&lt;div style=&quot;font-size: 13px;&quot;&gt;credentials&lt;/div&gt;" style="rounded=1;whiteSpace=wrap;html=1;fontStyle=1;fontSize=13;" vertex="1" parent="SLbRJCfgujYiKdR8xFGR-87">
          <mxGeometry x="350" y="370" width="120" height="60" as="geometry" />
        </mxCell>
        <mxCell id="SLbRJCfgujYiKdR8xFGR-42" value="&lt;span style=&quot;font-weight: 700; font-size: 13px;&quot;&gt;Enter user details&lt;/span&gt;" style="html=1;shape=mxgraph.sysml.callBehAct;whiteSpace=wrap;align=center;fontSize=13;" vertex="1" parent="SLbRJCfgujYiKdR8xFGR-87">
          <mxGeometry x="70" y="370" width="120" height="70" as="geometry" />
        </mxCell>
        <mxCell id="SLbRJCfgujYiKdR8xFGR-50" value="" style="edgeStyle=orthogonalEdgeStyle;rounded=0;orthogonalLoop=1;jettySize=auto;html=1;fontSize=13;" edge="1" parent="SLbRJCfgujYiKdR8xFGR-87" source="SLbRJCfgujYiKdR8xFGR-43" target="SLbRJCfgujYiKdR8xFGR-49">
          <mxGeometry relative="1" as="geometry">
            <Array as="points">
              <mxPoint x="410" y="610" />
              <mxPoint x="410" y="610" />
            </Array>
          </mxGeometry>
        </mxCell>
        <mxCell id="SLbRJCfgujYiKdR8xFGR-43" value="" style="shape=rhombus;html=1;verticalLabelPosition=bottom;verticalAlignment=top;fontSize=13;" vertex="1" parent="SLbRJCfgujYiKdR8xFGR-87">
          <mxGeometry x="375" y="475" width="70" height="70" as="geometry" />
        </mxCell>
        <mxCell id="SLbRJCfgujYiKdR8xFGR-44" value="" style="edgeStyle=elbowEdgeStyle;html=1;elbow=horizontal;align=right;verticalAlign=bottom;endArrow=none;rounded=0;labelBackgroundColor=none;startArrow=open;startSize=12;fontSize=13;" edge="1" source="SLbRJCfgujYiKdR8xFGR-43" parent="SLbRJCfgujYiKdR8xFGR-87">
          <mxGeometry relative="1" as="geometry">
            <mxPoint x="410" y="430" as="targetPoint" />
          </mxGeometry>
        </mxCell>
        <mxCell id="SLbRJCfgujYiKdR8xFGR-47" value="" style="edgeStyle=orthogonalEdgeStyle;rounded=0;orthogonalLoop=1;jettySize=auto;html=1;exitX=0;exitY=0.5;exitDx=0;exitDy=0;entryX=0.5;entryY=1;entryDx=0;entryDy=0;entryPerimeter=0;fontSize=13;" edge="1" parent="SLbRJCfgujYiKdR8xFGR-87" source="SLbRJCfgujYiKdR8xFGR-43" target="SLbRJCfgujYiKdR8xFGR-42">
          <mxGeometry relative="1" as="geometry">
            <mxPoint x="200" y="410" as="sourcePoint" />
            <mxPoint x="360" y="410" as="targetPoint" />
          </mxGeometry>
        </mxCell>
        <mxCell id="SLbRJCfgujYiKdR8xFGR-48" value="[Not valid credentials]" style="text;html=1;align=center;verticalAlign=middle;whiteSpace=wrap;rounded=0;fontStyle=1;fontSize=13;" vertex="1" parent="SLbRJCfgujYiKdR8xFGR-87">
          <mxGeometry x="295" y="475" width="80" height="30" as="geometry" />
        </mxCell>
        <mxCell id="SLbRJCfgujYiKdR8xFGR-49" value="" style="html=1;points=[];perimeter=orthogonalPerimeter;fillColor=strokeColor;direction=south;fontSize=13;" vertex="1" parent="SLbRJCfgujYiKdR8xFGR-87">
          <mxGeometry x="375" y="610" width="335" height="5" as="geometry" />
        </mxCell>
        <mxCell id="SLbRJCfgujYiKdR8xFGR-51" value="[valid credentials]" style="text;html=1;align=center;verticalAlign=middle;whiteSpace=wrap;rounded=0;fontStyle=1;fontSize=13;" vertex="1" parent="SLbRJCfgujYiKdR8xFGR-87">
          <mxGeometry x="410" y="550" width="110" height="30" as="geometry" />
        </mxCell>
        <mxCell id="SLbRJCfgujYiKdR8xFGR-53" value="" style="edgeStyle=orthogonalEdgeStyle;rounded=0;orthogonalLoop=1;jettySize=auto;html=1;entryX=0.5;entryY=0;entryDx=0;entryDy=0;fontSize=13;" edge="1" parent="SLbRJCfgujYiKdR8xFGR-87" target="SLbRJCfgujYiKdR8xFGR-52">
          <mxGeometry relative="1" as="geometry">
            <mxPoint x="440" y="615" as="sourcePoint" />
            <mxPoint x="440" y="640" as="targetPoint" />
            <Array as="points" />
          </mxGeometry>
        </mxCell>
        <mxCell id="SLbRJCfgujYiKdR8xFGR-52" value="Sends verification&lt;br style=&quot;font-size: 13px;&quot;&gt;Email" style="rounded=1;whiteSpace=wrap;html=1;fontStyle=1;fontSize=13;" vertex="1" parent="SLbRJCfgujYiKdR8xFGR-87">
          <mxGeometry x="380" y="660" width="120" height="60" as="geometry" />
        </mxCell>
        <mxCell id="SLbRJCfgujYiKdR8xFGR-70" value="" style="edgeStyle=orthogonalEdgeStyle;rounded=0;orthogonalLoop=1;jettySize=auto;html=1;fontSize=13;" edge="1" parent="SLbRJCfgujYiKdR8xFGR-87" source="SLbRJCfgujYiKdR8xFGR-58" target="SLbRJCfgujYiKdR8xFGR-69">
          <mxGeometry relative="1" as="geometry" />
        </mxCell>
        <mxCell id="SLbRJCfgujYiKdR8xFGR-58" value="Recieve confirmation Email" style="rounded=1;whiteSpace=wrap;html=1;fontStyle=1;fontSize=13;" vertex="1" parent="SLbRJCfgujYiKdR8xFGR-87">
          <mxGeometry x="71.97" y="760" width="118.0327868852459" height="60.00000000000001" as="geometry" />
        </mxCell>
        <mxCell id="SLbRJCfgujYiKdR8xFGR-57" value="" style="edgeStyle=orthogonalEdgeStyle;rounded=0;orthogonalLoop=1;jettySize=auto;html=1;exitX=0.5;exitY=1;exitDx=0;exitDy=0;fontSize=13;" edge="1" parent="SLbRJCfgujYiKdR8xFGR-87" source="SLbRJCfgujYiKdR8xFGR-52">
          <mxGeometry relative="1" as="geometry">
            <mxPoint x="440" y="740" as="sourcePoint" />
            <mxPoint x="129" y="760" as="targetPoint" />
            <Array as="points">
              <mxPoint x="440" y="740" />
              <mxPoint x="129" y="740" />
            </Array>
          </mxGeometry>
        </mxCell>
        <mxCell id="SLbRJCfgujYiKdR8xFGR-68" value="" style="edgeStyle=elbowEdgeStyle;rounded=0;orthogonalLoop=1;jettySize=auto;html=1;entryX=1;entryY=0.5;entryDx=0;entryDy=0;fontSize=13;exitX=0.5;exitY=1;exitDx=0;exitDy=0;" edge="1" parent="SLbRJCfgujYiKdR8xFGR-87" source="SLbRJCfgujYiKdR8xFGR-55" target="SLbRJCfgujYiKdR8xFGR-66">
          <mxGeometry relative="1" as="geometry">
            <mxPoint x="660" y="740" as="sourcePoint" />
            <mxPoint x="470" y="810" as="targetPoint" />
            <Array as="points">
              <mxPoint x="660" y="780" />
            </Array>
          </mxGeometry>
        </mxCell>
        <mxCell id="SLbRJCfgujYiKdR8xFGR-66" value="Activate user account" style="rounded=1;whiteSpace=wrap;html=1;fontStyle=1;fontSize=13;" vertex="1" parent="SLbRJCfgujYiKdR8xFGR-87">
          <mxGeometry x="380" y="760" width="118.0327868852459" height="60.00000000000001" as="geometry" />
        </mxCell>
        <mxCell id="SLbRJCfgujYiKdR8xFGR-69" value="Press confirmation" style="rounded=1;whiteSpace=wrap;html=1;fontStyle=1;fontSize=13;" vertex="1" parent="SLbRJCfgujYiKdR8xFGR-87">
          <mxGeometry x="71.97" y="850" width="118.0327868852459" height="60.00000000000001" as="geometry" />
        </mxCell>
        <mxCell id="SLbRJCfgujYiKdR8xFGR-71" value="" style="html=1;points=[];perimeter=orthogonalPerimeter;fillColor=strokeColor;direction=south;fontSize=13;" vertex="1" parent="SLbRJCfgujYiKdR8xFGR-87">
          <mxGeometry x="110" y="970" width="360" height="5" as="geometry" />
        </mxCell>
        <mxCell id="SLbRJCfgujYiKdR8xFGR-72" value="" style="edgeStyle=orthogonalEdgeStyle;rounded=0;orthogonalLoop=1;jettySize=auto;html=1;entryX=0;entryY=0.943;entryDx=0;entryDy=0;entryPerimeter=0;fontSize=13;" edge="1" parent="SLbRJCfgujYiKdR8xFGR-87" target="SLbRJCfgujYiKdR8xFGR-71">
          <mxGeometry relative="1" as="geometry">
            <mxPoint x="130.49" y="910" as="sourcePoint" />
            <mxPoint x="130.49" y="940" as="targetPoint" />
            <Array as="points" />
          </mxGeometry>
        </mxCell>
        <mxCell id="SLbRJCfgujYiKdR8xFGR-73" value="" style="edgeStyle=orthogonalEdgeStyle;rounded=0;orthogonalLoop=1;jettySize=auto;html=1;entryX=0.44;entryY=0.084;entryDx=0;entryDy=0;entryPerimeter=0;fontSize=13;" edge="1" parent="SLbRJCfgujYiKdR8xFGR-87" target="SLbRJCfgujYiKdR8xFGR-71">
          <mxGeometry relative="1" as="geometry">
            <mxPoint x="438.51" y="820" as="sourcePoint" />
            <mxPoint x="439" y="960" as="targetPoint" />
            <Array as="points" />
          </mxGeometry>
        </mxCell>
        <mxCell id="SLbRJCfgujYiKdR8xFGR-74" value="" style="edgeStyle=orthogonalEdgeStyle;rounded=0;orthogonalLoop=1;jettySize=auto;html=1;entryX=0.5;entryY=0;entryDx=0;entryDy=0;fontSize=13;" edge="1" parent="SLbRJCfgujYiKdR8xFGR-87" target="SLbRJCfgujYiKdR8xFGR-75">
          <mxGeometry relative="1" as="geometry">
            <mxPoint x="380" y="975" as="sourcePoint" />
            <mxPoint x="380.51" y="1035" as="targetPoint" />
            <Array as="points" />
          </mxGeometry>
        </mxCell>
        <mxCell id="SLbRJCfgujYiKdR8xFGR-75" value="Navigate to&amp;nbsp;&lt;div style=&quot;font-size: 13px;&quot;&gt;&quot;All lands&quot; page&lt;/div&gt;" style="rounded=1;whiteSpace=wrap;html=1;fontStyle=1;fontSize=13;" vertex="1" parent="SLbRJCfgujYiKdR8xFGR-87">
          <mxGeometry x="321.97" y="1040" width="118.0327868852459" height="60.00000000000001" as="geometry" />
        </mxCell>
        <mxCell id="SLbRJCfgujYiKdR8xFGR-76" value="" style="edgeStyle=elbowEdgeStyle;rounded=0;orthogonalLoop=1;jettySize=auto;html=1;entryX=1;entryY=0.5;entryDx=0;entryDy=0;fontSize=13;" edge="1" parent="SLbRJCfgujYiKdR8xFGR-87" target="SLbRJCfgujYiKdR8xFGR-77">
          <mxGeometry relative="1" as="geometry">
            <mxPoint x="379.99" y="1100" as="sourcePoint" />
            <mxPoint x="220" y="1160" as="targetPoint" />
            <Array as="points">
              <mxPoint x="380" y="1140" />
            </Array>
          </mxGeometry>
        </mxCell>
        <mxCell id="SLbRJCfgujYiKdR8xFGR-77" value="Select preferred&lt;div style=&quot;font-size: 13px;&quot;&gt;land&lt;/div&gt;" style="rounded=1;whiteSpace=wrap;html=1;fontStyle=1;fontSize=13;" vertex="1" parent="SLbRJCfgujYiKdR8xFGR-87">
          <mxGeometry x="70" y="1110" width="118.0327868852459" height="60.00000000000001" as="geometry" />
        </mxCell>
        <mxCell id="SLbRJCfgujYiKdR8xFGR-78" value="Display land details" style="rounded=1;whiteSpace=wrap;html=1;fontStyle=1;fontSize=13;" vertex="1" parent="SLbRJCfgujYiKdR8xFGR-87">
          <mxGeometry x="321.97" y="1190" width="118.0327868852459" height="60.00000000000001" as="geometry" />
        </mxCell>
        <mxCell id="SLbRJCfgujYiKdR8xFGR-79" value="" style="edgeStyle=elbowEdgeStyle;rounded=0;orthogonalLoop=1;jettySize=auto;html=1;entryX=0;entryY=0.5;entryDx=0;entryDy=0;fontSize=13;" edge="1" parent="SLbRJCfgujYiKdR8xFGR-87" target="SLbRJCfgujYiKdR8xFGR-78">
          <mxGeometry relative="1" as="geometry">
            <mxPoint x="131.99" y="1170" as="sourcePoint" />
            <mxPoint x="-60" y="1210" as="targetPoint" />
            <Array as="points">
              <mxPoint x="132" y="1210" />
            </Array>
          </mxGeometry>
        </mxCell>
        <mxCell id="SLbRJCfgujYiKdR8xFGR-80" value="" style="edgeStyle=elbowEdgeStyle;rounded=0;orthogonalLoop=1;jettySize=auto;html=1;entryX=1;entryY=0.5;entryDx=0;entryDy=0;fontSize=13;" edge="1" parent="SLbRJCfgujYiKdR8xFGR-87" target="SLbRJCfgujYiKdR8xFGR-81">
          <mxGeometry relative="1" as="geometry">
            <mxPoint x="379.99" y="1250" as="sourcePoint" />
            <mxPoint x="220" y="1310" as="targetPoint" />
            <Array as="points">
              <mxPoint x="380" y="1290" />
            </Array>
          </mxGeometry>
        </mxCell>
        <mxCell id="SLbRJCfgujYiKdR8xFGR-83" value="" style="edgeStyle=elbowEdgeStyle;rounded=0;orthogonalLoop=1;jettySize=auto;html=1;fontSize=13;" edge="1" parent="SLbRJCfgujYiKdR8xFGR-87" source="SLbRJCfgujYiKdR8xFGR-81" target="SLbRJCfgujYiKdR8xFGR-82">
          <mxGeometry relative="1" as="geometry" />
        </mxCell>
        <mxCell id="SLbRJCfgujYiKdR8xFGR-81" value="Request to purchuse land" style="rounded=1;whiteSpace=wrap;html=1;fontStyle=1;fontSize=13;" vertex="1" parent="SLbRJCfgujYiKdR8xFGR-87">
          <mxGeometry x="70" y="1260" width="118.0327868852459" height="60.00000000000001" as="geometry" />
        </mxCell>
        <mxCell id="SLbRJCfgujYiKdR8xFGR-82" value="" style="ellipse;html=1;shape=endState;fontSize=13;fillColor=#000000;" vertex="1" parent="SLbRJCfgujYiKdR8xFGR-87">
          <mxGeometry x="116" y="1370" width="30" height="30" as="geometry" />
        </mxCell>
        <mxCell id="SLbRJCfgujYiKdR8xFGR-84" value="Start" style="text;html=1;align=center;verticalAlign=middle;whiteSpace=wrap;rounded=0;fontStyle=1;fontSize=14;" vertex="1" parent="SLbRJCfgujYiKdR8xFGR-87">
          <mxGeometry x="100" y="80" width="60" height="30" as="geometry" />
        </mxCell>
        <mxCell id="SLbRJCfgujYiKdR8xFGR-85" value="Stop" style="text;html=1;align=center;verticalAlign=middle;whiteSpace=wrap;rounded=0;fontStyle=1;fontSize=14;" vertex="1" parent="SLbRJCfgujYiKdR8xFGR-87">
          <mxGeometry x="101" y="1400" width="60" height="30" as="geometry" />
        </mxCell>
      </root>
    </mxGraphModel>
  </diagram>
</mxfile>
